# xmcd CD database file
#
# Track frame offsets:
#	150
#	17558
#	32711
#	56265
#	70748
#	89725
#	104925
#	125045
#	147553
#	163304
#	181182
#	196587
#	216404
#
# Disc length: 3220 seconds
#
# Revision: 1
# Processed by: cddbd v1.5.2PL0 Copyright (c) Steve Scherf et al.
# Submitted via: CDex 1.70beta2
#
DISCID=c50c920d
DTITLE=Peggy Ratusz - Infused with the Blues
DYEAR=2009
DGENRE=Blues
TTITLE0=Live Doll
TTITLE1=No More
TTITLE2=Honey Boy
TTITLE3=Big Man
TTITLE4=Sins
TTITLE5=Victim of the Blues
TTITLE6=Blue Persuasion
TTITLE7=A Thousand Miles
TTITLE8=All For One
TTITLE9=Miss Blue
TTITLE10=Lonely Avenue
TTITLE11=Wastin Away
TTITLE12=Good Day for the Blues
EXTD=YEAR: 2009
EXTT0=
EXTT1=
EXTT2=
EXTT3=
EXTT4=
EXTT5=
EXTT6=
EXTT7=
EXTT8=
EXTT9=
EXTT10=
EXTT11=
EXTT12=
PLAYORDER=
